<svg width="224" height="77" viewBox="0 0 224 77" fill="none" xmlns="http://www.w3.org/2000/svg">
<path d="M8.064 13.2H17.6L24.896 58H17.856L16.576 49.104V49.232H8.576L7.296 58H0.768L8.064 13.2ZM15.744 43.152L12.608 21.008H12.48L9.408 43.152H15.744ZM28.3115 13.2H35.3515V51.6H46.9355V58H28.3115V13.2ZM50.3115 13.2H57.3515V58H50.3115V13.2ZM62.624 13.2H72.672L77.152 45.264H77.28L81.76 13.2H91.808V58H85.152V24.08H85.024L79.904 58H74.016L68.896 24.08H68.768V58H62.624V13.2ZM97.0615 13.2H116.262V19.6H104.102V31.44H113.766V37.84H104.102V51.6H116.262V58H97.0615V13.2ZM120.312 13.2H129.144L135.992 40.016H136.12V13.2H142.392V58H135.16L126.712 25.296H126.584V58H120.312V13.2ZM153.128 19.6H145.768V13.2H167.528V19.6H160.168V58H153.128V19.6ZM170.937 13.2H190.137V19.6H177.977V31.44H187.641V37.84H177.977V51.6H190.137V58H170.937V13.2Z" fill="#F2F2F2"/>
<path d="M214.332 37.8633H194.84V31.5742H214.332V37.8633ZM207.887 45.1484H201.344V24.4453H207.887V45.1484Z" fill="white"/>
</svg>
